<?xml version="1.0" standalone="no"?>
<!DOCTYPE svg PUBLIC "-//W3C//DTD SVG 20010904//EN"
 "http://www.w3.org/TR/2001/REC-SVG-20010904/DTD/svg10.dtd">
<svg version="1.0" xmlns="http://www.w3.org/2000/svg"
 width="170.000000pt" height="170.000000pt" viewBox="0 0 170.000000 170.000000"
 preserveAspectRatio="xMidYMid meet">
<metadata>
Created by potrace 1.14, written by Peter Selinger 2001-2017
</metadata>
<g transform="translate(0.000000,170.000000) scale(0.100000,-0.100000)"
fill="#000000" stroke="none">
<path d="M783 1657 c-70 -48 -161 -132 -193 -177 -12 -16 -20 -30 -18 -31 83
-20 111 -15 153 27 22 22 58 54 79 72 l40 31 35 -26 c95 -70 180 -176 234
-290 24 -53 32 -84 35 -150 l4 -83 42 -24 c22 -13 61 -43 85 -66 24 -23 44
-40 46 -38 1 2 12 23 25 47 l21 43 -22 24 c-12 13 -39 35 -60 50 -31 21 -39
33 -39 58 0 81 -61 237 -128 326 -62 83 -165 178 -253 234 -25 16 -27 15 -86
-27z"/>
<path d="M478 1394 c-2 -1 -23 -4 -48 -7 -109 -12 -320 -96 -320 -128 0 -75
35 -241 67 -317 l14 -35 26 39 c15 22 31 42 37 46 7 5 7 17 -1 40 -14 37 -21
72 -30 139 l-6 47 59 22 c186 70 370 70 507 0 l59 -30 65 31 c36 17 81 33 99
36 19 3 34 10 34 15 0 4 -12 26 -26 48 -29 44 -31 44 -113 9 -55 -24 -52 -24
-125 5 -34 14 -81 27 -106 31 -47 7 -188 14 -192 9z"/>
<path d="M1244 1339 l24 -51 105 -35 104 -34 -13 -77 c-8 -42 -21 -95 -30
-117 -9 -22 -15 -41 -14 -43 0 -1 -16 -35 -37 -74 -41 -78 -110 -154 -185
-206 -47 -33 -48 -34 -48 -87 0 -30 0 -57 0 -60 -1 -3 -7 -23 -15 -46 -8 -23
-15 -43 -15 -45 0 -2 23 -2 51 0 59 3 66 10 75 86 7 53 10 58 90 135 147 141
215 292 239 531 l6 61 -78 35 c-81 38 -181 68 -245 75 l-38 4 24 -52z"/>
<path d="M483 1242 c-16 -2 -24 -14 -32 -50 -6 -26 -12 -60 -13 -75 -2 -19
-13 -36 -33 -50 -77 -53 -175 -178 -219 -281 -38 -86 -56 -164 -71 -304 l-6
-53 76 -35 c68 -31 162 -60 251 -77 l32 -6 -22 54 c-20 53 -23 55 -76 70 -30
9 -78 25 -106 36 l-51 20 8 50 c33 206 138 382 279 466 39 24 40 25 40 82 0
32 6 79 14 104 8 26 13 47 13 48 -5 3 -65 4 -84 1z"/>
<path d="M579 993 c0 -15 -1 -85 -2 -155 l-2 -128 28 0 c27 0 27 0 27 68 l0
69 68 -2 67 -1 -1 -67 c0 -66 0 -67 27 -67 l27 0 0 153 1 153 -28 2 c-26 2
-27 1 -26 -61 l0 -62 -67 -3 -67 -3 -3 63 c-3 57 -5 63 -25 66 -19 3 -23 -1
-24 -25z"/>
<path d="M875 865 l0 -155 27 0 28 0 0 103 0 102 68 -102 c55 -85 71 -103 92
-103 l26 0 -1 153 0 152 -26 3 -25 3 1 -105 c1 -101 0 -105 -17 -89 -10 9 -18
20 -18 24 0 4 -25 44 -56 88 -41 60 -61 81 -77 81 -22 0 -23 -2 -22 -155z"/>
<path d="M366 802 c-2 -4 -14 -25 -26 -47 l-22 -40 61 -55 c45 -42 61 -63 61
-82 0 -69 60 -226 118 -311 43 -62 142 -159 216 -212 35 -25 67 -45 70 -45 33
0 238 178 266 231 9 17 7 19 -17 20 -15 0 -41 3 -57 5 -22 4 -35 -1 -51 -18
-34 -36 -89 -83 -117 -102 -25 -16 -27 -16 -75 22 -152 121 -253 305 -253 463
0 34 -5 41 -47 71 -27 17 -65 49 -85 69 -21 21 -39 35 -42 31z"/>
<path d="M1462 745 l-32 -46 15 -53 c8 -28 16 -76 18 -106 l2 -53 -76 -28
c-93 -34 -141 -42 -244 -43 -113 0 -169 13 -261 61 -40 21 -41 21 -69 3 -16
-10 -59 -28 -97 -41 -37 -12 -68 -23 -68 -25 0 -3 11 -23 26 -45 23 -37 28
-40 56 -34 17 4 49 15 71 25 39 18 42 18 91 -2 189 -76 427 -59 635 46 l53 27
-7 62 c-12 110 -19 143 -46 230 -12 37 -25 67 -28 67 -4 0 -22 -20 -39 -45z"/>
</g>
</svg>
